<?xml version="1.0" encoding="utf-8"?>
<!-- Generator: Adobe Illustrator 26.5.0, SVG Export Plug-In . SVG Version: 6.00 Build 0)  -->
<svg version="1.1" id="Layer_1" xmlns="http://www.w3.org/2000/svg" xmlns:xlink="http://www.w3.org/1999/xlink" x="0px" y="0px"
	 width="1200px" height="190px" viewBox="0 0 1200 190" style="enable-background:new 0 0 1200 190;" xml:space="preserve">
<style type="text/css">
	.st0{fill:#404041;}
	.st1{fill:#EE6331;}
	.st2{fill:#447099;}
</style>
<g id="full-rgb">
	<path id="fullLogo" class="st0" d="M228.2,50.8h27.2v5.1c5.1-4.7,14.3-7.2,21.8-7.2c29.7,0,48.1,20.5,48.1,49.4
		c0,29.7-19.2,51.9-48.9,51.9c-9.4,0-18-1.5-21-4.9v41h-27.3V50.8H228.2z M255.4,85.2v31.2c3,4.5,9.6,8.3,17.3,8.3
		c15.2,0,24.4-9.6,24.4-24.4c0-17.3-8.6-26.1-22.9-26.1C266.3,73.9,259,78.2,255.4,85.2z"/>
	<path id="fullLogo-2" class="st0" d="M387.3,48.7c31.2,0,53.2,21.2,53.2,50.7c0,29.3-22,50.5-53.2,50.5
		c-30.3,0-52.8-21.2-52.8-50.6C334.5,70,356.1,48.7,387.3,48.7z M387.3,124.7c14.8,0,25-9.4,25-25.2c0-16.2-11.3-25.4-25-25.4
		s-24.6,9.2-24.6,25.4C362.7,113.8,372.6,124.7,387.3,124.7z"/>
	<path id="fullLogo-3" class="st0" d="M450.8,79c0-18.8,15.6-30.3,42.1-30.3c18.6,0,34.4,8.7,40.6,17.7l-18.6,17.8
		c-6.4-6.6-15.2-10.2-27.4-10.2c-5.1,0-8.5,1.1-8.5,4.7c0,8.5,55.4,5.8,55.4,40.4c0,21.4-19.2,30.8-41.3,30.8
		c-23.9,0-39.8-10.9-46.8-23.7l21.6-14.7c5.3,6.8,16.2,13,28.2,13c6.6,0,10.1-1.7,10.1-5.3C506.2,109.8,450.8,112.3,450.8,79z"/>
	<path id="fullLogo-4" class="st0" d="M562.5,11.4c8.8,0,15.2,5.8,15.2,13.5c0,8.1-6.4,13.9-15.2,13.9c-9.6,0-15.4-5.8-15.4-13.9
		C547.1,17.2,553.5,11.4,562.5,11.4z M548.8,50.8H576v97.7h-27.2V50.8z"/>
	<path id="fullLogo-5" class="st0" d="M586.5,50.8H605V28.1h27.2v22.7h29.9v25.4h-29.9V108c0,11.8,2.6,16.3,10,16.3
		c6.4,0,11.5-2.3,16.7-6.4l11.3,19.3c-6.8,7.1-17.3,12.4-30.6,12.4c-20.5,0-34.6-11.1-34.6-33.6V76.2h-18.6L586.5,50.8z"/>
	<path id="fullLogo-6" class="st0" d="M675.7,50.9h11.7v2.8H683v10.7h-3V53.7h-4.3V50.9z"/>
	<path id="fullLogo-7" class="st0" d="M688.9,50.9h2.8l4.3,6.5l4.1-6.5h2.7v13.5h-3v-8.1l-3.5,5.4h-0.8l-3.6-5.4v8.2h-3V50.9z"/>
	<polygon id="fullLogo-8" class="st1" points="38,80.6 46.2,77 82.9,60.8 90.9,57.2 179.7,18 179.7,65.3 143.8,80.6 135.7,77 
		173.2,61 173.2,27.9 98.9,60.8 90.9,64.3 54.3,80.5 46.2,84.1 20.3,95.5 20.3,104 45.8,115.3 53.9,118.9 91.5,135.4 99.5,139 
		173.2,171.6 173.2,138.1 136.1,122.3 144.2,118.7 179.7,133.9 179.7,181.5 91.5,142.6 83.6,139 45.8,122.3 37.6,118.7 13.8,108.2 
		13.8,91.3 	"/>
	<polygon class="st1" points="99.2,99.6 135.6,84.1 127.5,80.5 82.6,99.6 127.9,118.9 136,115.3 	"/>
	<polygon id="fullLogo-9" class="st2" points="45.8,115.3 53.9,118.9 90.9,103.1 82.7,99.6 	"/>
	<polygon id="fullLogo-10" class="st2" points="54.3,80.5 46.2,84.1 82.7,99.6 90.9,96.1 	"/>
	<polygon id="fullLogo-11" class="st2" points="143.8,80.6 135.7,77 98.9,60.8 90.9,57.2 2.1,18 2.1,65.3 38,80.6 46.2,77 8.6,61 
		8.6,27.9 82.9,60.8 90.9,64.3 127.5,80.5 135.6,84.1 161.6,95.5 161.6,104 136.1,115.3 127.9,118.9 90.4,135.4 82.4,139 8.6,171.6 
		8.6,138.1 45.8,122.3 37.6,118.7 2.1,133.9 2.1,181.5 90.3,142.6 98.3,139 136.1,122.3 144.2,118.7 168,108.2 168,91.3 	"/>
</g>
<g>
	<g>
		<path class="st0" d="M792.6,30.3c-7.1,0-13.5,1.2-19.1,3.6c-5.7,2.4-10.5,5.9-14.4,10.5c-4,4.6-7,10.2-9.1,16.7s-3.2,13.8-3.2,22
			c0,10.8,1.7,20.1,5.1,28.1c3.4,7.9,8.4,14.1,15.1,18.4c6.7,4.3,15.1,6.5,25.2,6.5c5.7,0,11.1-0.5,16.2-1.5c5.1-1,10-2.2,14.8-3.6
			v13c-4.7,1.8-9.6,3.1-14.8,3.9c-5.2,0.8-11.3,1.3-18.4,1.3c-13.1,0-24-2.7-32.7-8.1c-8.8-5.4-15.3-13.1-19.7-23
			c-4.4-9.9-6.5-21.6-6.5-35.1c0-9.7,1.4-18.6,4.1-26.7c2.7-8.1,6.7-15,12-20.9c5.2-5.9,11.7-10.4,19.3-13.6
			c7.6-3.2,16.4-4.8,26.3-4.8c6.5,0,12.8,0.6,18.8,1.9c6,1.3,11.5,3.1,16.3,5.5l-6,12.7c-4.1-1.9-8.6-3.5-13.5-4.9
			C803.6,31,798.3,30.3,792.6,30.3z"/>
		<path class="st0" d="M859,147.5h-14.7V10.7H859V147.5z"/>
		<path class="st0" d="M968.4,99.2c0,7.9-1,15-3.1,21.2c-2.1,6.2-5,11.5-8.9,15.7c-3.9,4.3-8.5,7.5-14,9.8
			c-5.5,2.3-11.7,3.4-18.6,3.4c-6.4,0-12.3-1.1-17.7-3.4s-10-5.5-13.9-9.8c-3.9-4.3-6.9-9.5-9.1-15.7c-2.1-6.2-3.2-13.3-3.2-21.2
			c0-10.5,1.8-19.5,5.4-26.9c3.6-7.4,8.7-13.1,15.3-17c6.6-3.9,14.6-5.8,23.8-5.8c8.8,0,16.5,2,23.1,5.9c6.6,3.9,11.7,9.6,15.4,17
			C966.5,79.7,968.4,88.7,968.4,99.2z M895.1,99.2c0,7.7,1,14.4,3.1,20.1c2.1,5.7,5.2,10.1,9.5,13.2c4.3,3.1,9.8,4.7,16.5,4.7
			c6.7,0,12.2-1.6,16.5-4.7c4.3-3.1,7.5-7.5,9.5-13.2c2.1-5.7,3.1-12.4,3.1-20.1c0-7.7-1-14.3-3.1-19.9c-2.1-5.6-5.2-9.9-9.5-13
			c-4.3-3-9.8-4.6-16.6-4.6c-10,0-17.4,3.3-22,9.9C897.4,78.3,895.1,87.4,895.1,99.2z"/>
		<path class="st0" d="M1068.6,51.2v96.3h-12l-2.1-13.5h-0.8c-2,3.3-4.6,6.2-7.7,8.4s-6.7,4-10.7,5.1s-8.2,1.7-12.6,1.7
			c-7.6,0-14-1.2-19.2-3.7c-5.2-2.5-9-6.3-11.6-11.4c-2.6-5.2-3.9-11.8-3.9-19.9V51.2h14.8v62.1c0,8,1.8,14,5.4,18
			c3.6,4,9.2,5.9,16.6,5.9c7.1,0,12.8-1.3,17.1-4c4.2-2.7,7.3-6.7,9.2-11.9c1.9-5.2,2.8-11.7,2.8-19.3V51.2H1068.6z"/>
		<path class="st0" d="M1129.3,149.3c-12.2,0-21.8-4.2-29-12.5c-7.1-8.3-10.7-20.7-10.7-37.1c0-16.6,3.6-29.1,10.9-37.6
			c7.3-8.5,16.9-12.7,29-12.7c5.1,0,9.5,0.7,13.4,2c3.8,1.3,7.1,3.2,9.8,5.4c2.8,2.3,5.1,4.8,6.9,7.7h1.1c-0.2-1.8-0.5-4.3-0.7-7.5
			c-0.2-3.2-0.4-5.7-0.4-7.7V10.7h14.6v136.8h-11.8l-2.2-13.7h-0.6c-1.8,2.9-4.1,5.5-6.9,7.8c-2.8,2.3-6.1,4.2-9.9,5.6
			C1139,148.6,1134.5,149.3,1129.3,149.3z M1131.5,137.1c10.3,0,17.6-2.9,21.9-8.8c4.3-5.9,6.4-14.6,6.4-26.1v-2.6
			c0-12.2-2-21.7-6.1-28.2c-4.1-6.6-11.5-9.8-22.2-9.8c-9,0-15.7,3.4-20.1,10.3c-4.5,6.9-6.7,16.3-6.7,28.2c0,11.8,2.2,21,6.6,27.4
			C1115.8,133.9,1122.5,137.1,1131.5,137.1z"/>
	</g>
</g>
</svg>
